<svg width="759" height="245" viewBox="0 0 759 245" fill="none" xmlns="http://www.w3.org/2000/svg">
<path d="M109.641 82.2306C115.146 82.2306 119.608 77.7681 119.608 72.2632C119.608 66.7584 115.146 62.2959 109.641 62.2959C104.136 62.2959 99.6736 66.7584 99.6736 72.2632C99.6736 77.7681 104.136 82.2306 109.641 82.2306Z" fill="#F8B500"/>
<path d="M39.8694 82.2306C45.3743 82.2306 49.8368 77.7681 49.8368 72.2632C49.8368 66.7584 45.3743 62.2959 39.8694 62.2959C34.3646 62.2959 29.9021 66.7584 29.9021 72.2632C29.9021 77.7681 34.3646 82.2306 39.8694 82.2306Z" fill="#F8B500"/>
<path d="M87.2143 156.986C87.2143 148.763 93.9422 142.035 102.165 142.035V166.953C102.165 193.117 123.346 214.298 149.51 214.298V22.4265C149.51 22.4265 124.592 0 74.5059 0C24.6692 0 0 22.4265 0 22.4265V139.543C0 197.353 46.8465 244.2 104.657 244.2H149.51V229.249C115.123 229.249 87.2143 201.34 87.2143 166.953V156.986ZM74.5059 124.592C37.6267 124.592 14.951 104.657 14.951 92.198V32.3939C72.2633 32.3939 72.2633 94.6898 74.7551 102.165C77.2469 94.6898 77.2469 32.3939 134.559 32.3939V92.198C134.559 102.414 111.634 124.592 74.5059 124.592Z" fill="#F8B500"/>
<path d="M247.301 173.644C238.592 173.644 230.924 171.94 224.297 168.532C217.765 165.124 212.701 160.486 209.103 154.616C205.506 148.652 203.707 141.884 203.707 134.31C203.707 126.642 205.459 119.874 208.961 114.004C212.559 108.04 217.434 103.402 223.587 100.088C229.741 96.6802 236.699 94.9762 244.461 94.9762C251.94 94.9762 258.661 96.5855 264.625 99.8042C270.684 102.928 275.465 107.472 278.967 113.436C282.47 119.306 284.221 126.358 284.221 134.594C284.221 135.446 284.174 136.44 284.079 137.576C283.985 138.618 283.89 139.612 283.795 140.558H221.741V127.636H272.151L263.631 131.47C263.631 127.494 262.827 124.039 261.217 121.104C259.608 118.17 257.383 115.898 254.543 114.288C251.703 112.584 248.39 111.732 244.603 111.732C240.817 111.732 237.456 112.584 234.521 114.288C231.681 115.898 229.457 118.217 227.847 121.246C226.238 124.181 225.433 127.684 225.433 131.754V135.162C225.433 139.328 226.333 143.02 228.131 146.238C230.025 149.362 232.628 151.776 235.941 153.48C239.349 155.09 243.325 155.894 247.869 155.894C251.94 155.894 255.49 155.279 258.519 154.048C261.643 152.818 264.483 150.972 267.039 148.51L278.825 161.29C275.323 165.266 270.921 168.343 265.619 170.52C260.318 172.603 254.212 173.644 247.301 173.644ZM298.969 172.508V67.1442H321.121V172.508H298.969ZM379.594 173.644C370.885 173.644 363.217 171.94 356.59 168.532C350.058 165.124 344.994 160.486 341.396 154.616C337.799 148.652 336 141.884 336 134.31C336 126.642 337.752 119.874 341.254 114.004C344.852 108.04 349.727 103.402 355.88 100.088C362.034 96.6802 368.992 94.9762 376.754 94.9762C384.233 94.9762 390.954 96.5855 396.918 99.8042C402.977 102.928 407.758 107.472 411.26 113.436C414.763 119.306 416.514 126.358 416.514 134.594C416.514 135.446 416.467 136.44 416.372 137.576C416.278 138.618 416.183 139.612 416.088 140.558H354.034V127.636H404.444L395.924 131.47C395.924 127.494 395.12 124.039 393.51 121.104C391.901 118.17 389.676 115.898 386.836 114.288C383.996 112.584 380.683 111.732 376.896 111.732C373.11 111.732 369.749 112.584 366.814 114.288C363.974 115.898 361.75 118.217 360.14 121.246C358.531 124.181 357.726 127.684 357.726 131.754V135.162C357.726 139.328 358.626 143.02 360.424 146.238C362.318 149.362 364.921 151.776 368.234 153.48C371.642 155.09 375.618 155.894 380.162 155.894C384.233 155.894 387.783 155.279 390.812 154.048C393.936 152.818 396.776 150.972 399.332 148.51L411.118 161.29C407.616 165.266 403.214 168.343 397.912 170.52C392.611 172.603 386.505 173.644 379.594 173.644ZM450.608 172.508L418.516 96.1122H441.378L468.074 161.858H456.714L484.404 96.1122H505.704L473.47 172.508H450.608ZM533.533 172.508L501.441 96.1122H524.303L550.999 161.858H539.639L567.329 96.1122H588.629L556.395 172.508H533.533ZM631.941 173.644C623.799 173.644 616.557 171.94 610.215 168.532C603.967 165.124 598.997 160.486 595.305 154.616C591.707 148.652 589.909 141.884 589.909 134.31C589.909 126.642 591.707 119.874 595.305 114.004C598.997 108.04 603.967 103.402 610.215 100.088C616.557 96.6802 623.799 94.9762 631.941 94.9762C639.987 94.9762 647.182 96.6802 653.525 100.088C659.867 103.402 664.837 107.993 668.435 113.862C672.032 119.732 673.831 126.548 673.831 134.31C673.831 141.884 672.032 148.652 668.435 154.616C664.837 160.486 659.867 165.124 653.525 168.532C647.182 171.94 639.987 173.644 631.941 173.644ZM631.941 155.468C635.633 155.468 638.946 154.616 641.881 152.912C644.815 151.208 647.135 148.794 648.839 145.67C650.543 142.452 651.395 138.665 651.395 134.31C651.395 129.861 650.543 126.074 648.839 122.95C647.135 119.826 644.815 117.412 641.881 115.708C638.946 114.004 635.633 113.152 631.941 113.152C628.249 113.152 624.935 114.004 622.001 115.708C619.066 117.412 616.699 119.826 614.901 122.95C613.197 126.074 612.345 129.861 612.345 134.31C612.345 138.665 613.197 142.452 614.901 145.67C616.699 148.794 619.066 151.208 622.001 152.912C624.935 154.616 628.249 155.468 631.941 155.468Z" fill="black"/>
</svg>
